# xmcd CD database file
#
# Track frame offsets:
#	150
#	17764
#	31850
#	53051
#	70891
#	94360
#	120009
#	145499
#	166264
#
# Disc length: 2378 seconds
#
# Revision: 3
# Processed by: cddbd v1.5.1PL0 Copyright (c) Steve Scherf et al.
# Submitted via: CDex 1.50
#
DISCID=6f094809
DTITLE=平井敬人 - あなたのために歌いがち。
DYEAR=2001
DGENRE=JPop
TTITLE0=ベリー
TTITLE1=愛する人よ 僕は寝る
TTITLE2=ここからまた
TTITLE3=てけてけ湘南浪漫
TTITLE4=生きる人
TTITLE5=君に会いたいだけなのに
TTITLE6=自信ありげにいこう
TTITLE7=愛なきぶん
TTITLE8=(Hidden Track)
EXTD=YEAR: 2001
EXTT0=
EXTT1=
EXTT2=
EXTT3=
EXTT4=
EXTT5=
EXTT6=
EXTT7=
EXTT8=
PLAYORDER=
